<svg id="Capa_1" enable-background="new 0 0 512 512" height="512" viewBox="0 0 512 512" width="512" xmlns="http://www.w3.org/2000/svg"><g><path d="m256 512c140.96 0 256-115.049 256-256 0-140.96-115.049-256-256-256-140.959 0-256 115.049-256 256 0 140.959 115.049 256 256 256zm0-482c124.617 0 226 101.383 226 226s-101.383 226-226 226-226-101.383-226-226 101.383-226 226-226z"/><path d="m256 452c107.654 0 196-88.368 196-196 0-107.653-88.368-196-196-196-107.638 0-196 88.353-196 196 0 107.638 88.353 196 196 196zm0-362c91.533 0 166 74.467 166 166s-74.467 166-166 166-166-74.467-166-166 74.467-166 166-166z"/><path d="m183.177 356.232 72.823-38.285 72.822 38.285-13.907-81.089 58.914-57.428-81.418-11.831-36.411-73.777-36.411 73.777-81.418 11.831 58.915 57.428zm56.334-122.928 16.489-33.41 16.489 33.411 36.871 5.358-26.68 26.007 6.298 36.722-32.978-17.339-32.979 17.338 6.298-36.722-26.681-26.007z"/></g></svg>