<svg id="Capa_1" enable-background="new 0 0 512 512" height="512" viewBox="0 0 512 512" width="512" xmlns="http://www.w3.org/2000/svg"><g><circle cx="256" cy="256" fill="#ffea80" r="256"/><path d="m512 256c0-140.61-115.39-256-256-256v512c140.61 0 256-115.39 256-256z" fill="#fc6"/><circle cx="256" cy="256" fill="#fc6" r="195"/><path d="m451 256c0-107.52-87.48-195-195-195v390c107.52 0 195-87.48 195-195z" fill="#ffa54d"/><path d="m373.817 217.709-81.401-11.821-36.416-73.784-36.416 73.784-81.401 11.821 58.901 57.437-13.901 81.093 72.817-38.291 72.817 38.291-13.901-81.093z" fill="#ffea80"/><path d="m314.916 275.146 58.901-57.437-81.401-11.821-36.416-73.784v185.844l72.817 38.291z" fill="#fc6"/></g></svg>