<svg id="Capa_1" enable-background="new 0 0 512 512" height="512" viewBox="0 0 512 512" width="512" xmlns="http://www.w3.org/2000/svg"><g><path d="m256 0c-140.959 0-256 115.05-256 256 0 140.959 115.05 256 256 256 140.959 0 256-115.05 256-256 0-140.959-115.05-256-256-256zm0 482c-124.617 0-226-101.383-226-226s101.383-226 226-226 226 101.383 226 226-101.383 226-226 226z"/><path d="m331 226c33.084 0 60-26.916 60-60s-26.916-60-60-60-60 26.916-60 60c0 3.725.359 7.365 1.011 10.904l-74.298 41.501c-11.007-13.65-27.853-22.405-46.713-22.405-33.084 0-60 26.916-60 60s26.916 60 60 60c20.921 0 39.365-10.771 50.107-27.05l71.617 42.801c-1.118 4.57-1.724 9.339-1.724 14.249 0 33.084 26.916 60 60 60s60-26.916 60-60-26.916-60-60-60c-17.392 0-33.073 7.446-44.042 19.309l-76.094-45.477c.08-1.268.135-2.543.135-3.832 0-3.465-.312-6.856-.878-10.162l74.612-41.677c11.015 13.33 27.666 21.839 46.267 21.839zm0 90c16.542 0 30 13.458 30 30s-13.458 30-30 30-30-13.458-30-30 13.458-30 30-30zm-180-30c-16.542 0-30-13.458-30-30s13.458-30 30-30 30 13.458 30 30-13.458 30-30 30zm180-150c16.542 0 30 13.458 30 30s-13.458 30-30 30-30-13.458-30-30 13.458-30 30-30z"/></g></svg>